M48
; DRILL file KiCad 10.0.3 date 2026-07-24T21:59:59
; FORMAT={-:-/ absolute / metric / decimal}
; #@! TF.CreationDate,2026-07-24T21:59:59+00:00
; #@! TF.GenerationSoftware,Kicad,Pcbnew,10.0.3
; #@! TF.FileFunction,Plated,1,2,PTH
FMAT,2
METRIC
; #@! TA.AperFunction,Plated,PTH,ViaDrill
T1C0.400
; #@! TA.AperFunction,Plated,PTH,ComponentDrill
T2C0.500
; #@! TA.AperFunction,Plated,PTH,ComponentDrill
T3C1.000
; #@! TA.AperFunction,Plated,PTH,ComponentDrill
T4C2.300
%
G90
G05
T1
X101.27Y-63.815
X101.895Y-72.06
X102.52Y-70.79
X103.165Y-56.37
X103.81Y-60.63
X108.92Y-62.17
X108.92Y-64.17
X108.92Y-66.67
X110.77Y-79.92
X110.77Y-84.52
X111.525Y-50.47
X112.44Y-59.36
X112.44Y-64.44
X113.222Y-80.95
X115.24Y-61.9
X115.24Y-64.44
X116.51Y-52.365
X116.51Y-79.68
X116.51Y-89.84
X117.126Y-62.649
X117.155Y-88.57
X117.34Y-75.87
X117.78Y-65.265
X118.649Y-66.944
X119.05Y-64.44
X119.05Y-72.06
X119.05Y-87.3
X119.67Y-60.63
X120.32Y-62.33
X120.32Y-70.329
X120.32Y-89.31
X120.32Y-92.91
X120.762Y-86.472
X121.105Y-63.272
X121.59Y-54.28
X122.86Y-59.36
X122.86Y-69.52
X122.86Y-70.79
X122.98Y-65.71
X123.826Y-58.394
X124.09Y-61.885
X124.13Y-53.635
X124.13Y-73.33
X124.355Y-60.63
X124.855Y-68.147
X125.4Y-58.09
X125.4Y-92.91
X125.53Y-70.66
X126.415Y-69.775
X126.67Y-52.385
X126.67Y-61.9
X126.67Y-80.95
X127.409Y-61.594
X127.815Y-52.885
X127.94Y-55.55
X127.94Y-56.44
X127.94Y-58.09
X127.94Y-70.79
X127.94Y-83.49
X128.298Y-51.473
X128.999Y-76.081
X129.085Y-51.615
X129.258Y-68.7
X129.28Y-67.8
X129.835Y-55.55
X129.855Y-89.84
X130.47Y-68.106
X130.48Y-70.79
X130.48Y-74.6
X130.605Y-67.105
X130.846Y-58.09
X131.044Y-70.084
X131.405Y-91.56
X131.49Y-55.55
X131.491Y-83.42
X131.583Y-51.907
X131.75Y-53.01
X131.75Y-66.98
X131.873Y-68.373
X131.995Y-65.71
X132.22Y-60.63
X132.809Y-79.891
X133.02Y-91.11
X133.488Y-53.812
X134.045Y-60.63
X134.045Y-68.25
X134.29Y-73.33
X134.872Y-84.569
X135.07Y-91.11
X135.56Y-51.74
X135.56Y-73.33
X135.879Y-69.201
X136.002Y-95.362
X136.707Y-70.912
X136.83Y-72.085
X137.145Y-53.965
X138.1Y-77.14
X138.1Y-78.41
X138.641Y-86.832
X139.266Y-86.207
X139.37Y-80.95
X140.111Y-70.52
X140.428Y-83.278
X140.64Y-74.6
X140.64Y-85.77
X140.64Y-91.11
X141.285Y-82.865
X141.36Y-76.237
X141.91Y-78.41
X141.91Y-82.22
X142.535Y-80.508
X142.79Y-74.473
X142.941Y-82.865
X143.18Y-71.145
X143.18Y-91.11
X143.27Y-92.15
X143.566Y-89.84
X143.815Y-80.315
X144.52Y-91.11
X144.52Y-94.92
X145.29Y-84.013
X145.673Y-72.466
X145.72Y-77.145
X145.72Y-79.68
X145.72Y-86.03
X145.845Y-63.295
X145.92Y-64.858
X146.265Y-60.678
X146.286Y-77.711
X146.365Y-92.85
X146.365Y-93.65
X146.365Y-96.19
X146.948Y-72.958
X146.976Y-72.046
X146.99Y-73.8
X146.99Y-74.6
X146.99Y-83.513
X147.195Y-67.104
X147.195Y-68.25
X147.3Y-97.46
X147.336Y-63.17
X147.441Y-81.339
X147.458Y-69.006
X147.822Y-82.577
X148.045Y-98.483
X148.085Y-87.339
X148.146Y-75.281
X148.26Y-59.36
X148.26Y-78.41
X148.26Y-96.19
X148.447Y-83.284
X148.695Y-84.804
X148.885Y-97.46
X149.301Y-90.35
X149.53Y-85.891
X149.53Y-88.57
X150.155Y-86.807
X150.73Y-90.29
X150.792Y-89.39
X150.8Y-75.395
X150.8Y-96.11
X150.803Y-61.903
X151.195Y-82.475
X151.243Y-87.25
X151.331Y-78.104
X151.616Y-85.962
X151.815Y-83.49
X152.07Y-78.41
X152.07Y-92.38
X152.705Y-87.25
X153.34Y-78.41
X153.85Y-72.57
X154.439Y-71.937
X154.61Y-63.17
X154.73Y-77.27
X155.063Y-71.357
X155.306Y-78.976
X155.641Y-74.345
X155.755Y-70.665
X155.866Y-63.156
X156.512Y-73.352
X156.515Y-72.309
X156.525Y-69.078
X156.525Y-74.345
X156.532Y-78.945
X156.675Y-83.47
X156.943Y-62.963
X157.15Y-77.395
X157.15Y-78.41
X157.274Y-70.914
X157.278Y-67.108
X157.856Y-84.693
X157.978Y-58.918
X158.303Y-79.826
X158.363Y-82.163
X158.403Y-73.38
X158.42Y-55.55
X158.42Y-70.79
X158.42Y-74.6
X158.495Y-77.968
X158.613Y-84.953
X159.124Y-62.604
X159.191Y-80.451
X159.317Y-61.527
X159.46Y-83.47
X159.69Y-63.17
X159.69Y-86.03
X159.732Y-78.67
X160.132Y-85.202
X160.96Y-55.55
X160.96Y-83.49
X161.228Y-81.77
X161.27Y-89.215
X161.352Y-84.368
X161.402Y-64.882
X161.917Y-84.934
X162.23Y-65.71
X162.23Y-72.895
X162.23Y-81.77
X163.5Y-66.98
X163.5Y-84.82
X163.5Y-89.215
X163.942Y-90.668
X164.125Y-96.188
X164.77Y-86.17
X167.246Y-81.77
X167.31Y-68.25
X167.31Y-72.79
X167.31Y-80.014
X167.31Y-96.19
X168.58Y-80.639
X169.567Y-81.368
X169.85Y-63.17
X169.85Y-79.68
X171.384Y-82.481
X171.949Y-83.047
X172.144Y-80.837
X172.39Y-63.815
X172.39Y-65.71
X173.088Y-74.028
X173.218Y-81.778
X174.585Y-73.415
X174.691Y-80.305
X175.94Y-72.06
X176.2Y-82.22
X176.394Y-81.006
X176.884Y-87.681
X176.96Y-80.44
X177.445Y-88.306
X177.595Y-79.805
X177.783Y-93.694
X177.88Y-88.977
X178.74Y-91.11
X178.74Y-93.65
X178.865Y-78.535
X179.236Y-82.422
X179.817Y-90.917
X180.01Y-82.22
X180.01Y-88.557
X180.135Y-74.725
X180.589Y-90.707
X180.838Y-74.158
X181.28Y-91.11
X181.28Y-95.06
X181.598Y-84.442
X181.791Y-85.519
X182.108Y-72.888
X182.108Y-81.778
X183.82Y-51.095
X185.09Y-77.91
X186.745Y-74.985
X187.188Y-67.808
X187.188Y-76.698
X187.63Y-86.675
X187.63Y-90.485
X187.822Y-76.062
X188.9Y-68.895
X188.9Y-77.91
X190.17Y-68.895
X190.17Y-77.91
X190.409Y-66.355
X191.584Y-68.328
X191.882Y-56.378
X193.98Y-98.275
X198.975Y-92.85
X198.975Y-93.65
X198.975Y-94.92
T2
X117.78Y-53.01
X117.78Y-54.01
X118.78Y-53.01
X118.78Y-54.01
X119.78Y-53.01
X119.78Y-54.01
X164.77Y-70.79
X164.77Y-71.79
X164.77Y-72.79
X165.77Y-70.79
X165.77Y-71.79
X165.77Y-72.79
T3
X118.796Y-49.2
X121.336Y-49.2
X123.876Y-49.2
X126.416Y-49.2
X127.94Y-97.46
X128.956Y-49.2
X130.48Y-97.46
X131.496Y-49.2
X133.02Y-97.46
X134.036Y-49.2
X135.56Y-97.46
X136.576Y-49.2
X138.1Y-97.46
X139.116Y-49.2
X140.64Y-97.46
X141.656Y-49.2
X143.18Y-97.46
X145.72Y-49.2
X145.72Y-97.46
X148.26Y-49.2
X150.8Y-49.2
X150.8Y-97.46
X153.34Y-49.2
X153.34Y-97.46
X155.88Y-49.2
X155.88Y-97.46
X158.42Y-49.2
X158.42Y-97.46
X160.96Y-49.2
X160.96Y-97.46
X163.5Y-49.2
X163.5Y-97.46
X166.04Y-97.46
X168.58Y-49.2
X168.58Y-97.46
X171.12Y-49.2
X173.66Y-49.2
X173.66Y-97.46
X176.2Y-49.2
X176.2Y-97.46
X178.74Y-49.2
X178.74Y-97.46
X181.28Y-49.2
X181.28Y-97.46
X183.82Y-49.2
X183.82Y-97.46
X186.36Y-49.2
X186.36Y-97.46
X188.9Y-97.46
X191.44Y-97.46
X193.98Y-49.2
X193.98Y-51.74
X193.98Y-54.28
X193.98Y-56.82
X193.98Y-59.36
X193.98Y-61.9
X193.98Y-64.44
X193.98Y-66.98
X193.98Y-69.52
X193.98Y-72.06
X193.98Y-74.6
X193.98Y-77.14
X193.98Y-79.68
X193.98Y-82.22
X193.98Y-84.76
X193.98Y-87.3
X193.98Y-89.84
X193.98Y-92.38
X196.52Y-49.2
X196.52Y-51.74
X196.52Y-54.28
X196.52Y-56.82
X196.52Y-59.36
X196.52Y-61.9
X196.52Y-64.44
X196.52Y-66.98
X196.52Y-69.52
X196.52Y-72.06
X196.52Y-74.6
X196.52Y-77.14
X196.52Y-79.68
X196.52Y-82.22
X196.52Y-84.76
X196.52Y-87.3
X196.52Y-89.84
X196.52Y-92.38
T4
X105.24Y-56.6
X105.24Y-69.74
T3
G00X106.35Y-91.38
M15
G01X106.35Y-93.38
M16
G05
G00X108.35Y-97.08
M15
G01X110.35Y-97.08
M16
G05
G00X112.35Y-91.38
M15
G01X112.35Y-93.38
M16
G05
M30
